<?xml version="1.0" standalone="no"?><!DOCTYPE svg PUBLIC "-//W3C//DTD SVG 1.1//EN" "http://www.w3.org/Graphics/SVG/1.1/DTD/svg11.dtd"><svg t="1679051312030" class="icon" viewBox="0 0 1024 1024" version="1.1" xmlns="http://www.w3.org/2000/svg" p-id="2768" width="16" height="16" xmlns:xlink="http://www.w3.org/1999/xlink"><path d="M68.266667 482.133333c-19.2 12.8-44.8 10.666667-59.733334-8.533333-12.8-19.2-10.666667-44.8 8.533334-59.733333l469.333333-341.333334c14.933333-10.666667 36.266667-10.666667 51.2 0l469.333333 341.333334c19.2 14.933333 23.466667 40.533333 8.533334 59.733333-8.533333 10.666667-21.333333 17.066667-34.133334 17.066667-8.533333 0-17.066667-2.133333-25.6-8.533334l-59.733333-42.666666V917.333333c0 23.466667-19.2 42.666667-42.666667 42.666667H170.666667c-23.466667 0-42.666667-19.2-42.666667-42.666667V439.466667l-59.733333 42.666666z m145.066666-104.533333V874.666667h128V661.333333c0-23.466667 19.2-42.666667 42.666667-42.666666h256c23.466667 0 42.666667 19.2 42.666667 42.666666v213.333334h128V377.6L512 160 213.333333 377.6zM426.666667 874.666667h170.666666v-170.666667h-170.666666v170.666667z" fill="#9ba3ad" p-id="2769"></path></svg>