<?xml version="1.0" standalone="no"?><!DOCTYPE svg PUBLIC "-//W3C//DTD SVG 1.1//EN" "http://www.w3.org/Graphics/SVG/1.1/DTD/svg11.dtd"><svg t="1679394914560" class="icon" viewBox="0 0 1024 1024" version="1.1" xmlns="http://www.w3.org/2000/svg" p-id="2800" xmlns:xlink="http://www.w3.org/1999/xlink" width="32" height="32"><path d="M806.3 721l-41-373.5c17.1-133.9-93.3-199.3-98-202-5.6-3.2-12.4-3.5-18.4-0.9-5.9 2.7-10.2 8-11.5 14.4l-21 103H408.9l-21-103c-1.3-6.3-5.6-11.7-11.5-14.4-5.9-2.7-12.8-2.3-18.4 0.9-1.2 0.7-119.8 70.7-97.1 209.9l-41.1 364.3c-6 39.1 5.4 79 31.4 109.2 26.4 30.8 65 48.5 105.7 48.5h312.2c40.4 0 78.7-17.4 105-47.8 26-29.9 37.7-69.4 32.2-108.6z m-62.7 82.2C725 824.7 697.8 837 669.2 837H357c-28.9 0-56.3-12.5-75.1-34.4-18.3-21.3-26.3-49.3-22-77.6l41.5-367.9c0.2-1.9 0.1-3.9-0.2-5.8-13.7-77.6 26.1-128.2 53.5-153l17.9 87.9c1.9 9.4 10.2 16.1 19.8 16.1h240.4c9.6 0 17.9-6.7 19.8-16.1l17.9-87.8c26.5 24.1 64.6 72.4 54.4 146.1-0.2 1.7-0.3 3.3-0.1 5l41.3 376.3c0 0.2 0.1 0.4 0.1 0.7 4 27.6-4.2 55.5-22.6 76.7z" fill="#7193f3" p-id="2801"></path><path d="M410.5 462.6m-34.7 0a34.7 34.7 0 1 0 69.4 0 34.7 34.7 0 1 0-69.4 0Z" fill="#7193f3" p-id="2802"></path><path d="M614.1 462.6m-34.7 0a34.7 34.7 0 1 0 69.4 0 34.7 34.7 0 1 0-69.4 0Z" fill="#7193f3" p-id="2803"></path><path d="M626.1 698.4c-21.2 18.7-41.1 26.8-58.9 23.9-19.8-3.1-33.2-18.9-38.1-25.6v-45.3c20.5-5.1 35.6-19.6 35.6-37.4 0-22-22.7-39.8-50.8-39.8S463.1 592 463.1 614c0 17.5 14.6 31.9 34.6 37.2v45.5c-4.9 6.8-18.4 22.5-38.1 25.6-17.9 2.8-37.7-5.3-58.9-23.9-6.3-5.5-15.9-4.9-21.4 1.3-5.5 6.3-4.9 15.9 1.3 21.4 24.2 21.3 48.3 32 71.7 32 4.1 0 8.2-0.3 12.2-1 22.3-3.6 38.5-16.4 48.7-27.2 10.2 10.8 26.4 23.6 48.7 27.2 4.1 0.7 8.1 1 12.2 1 23.5 0 47.5-10.7 71.7-32 6.3-5.5 6.9-15.1 1.3-21.4-5.1-6.2-14.7-6.8-21-1.3z" fill="#7193f3" p-id="2804"></path></svg>