<?xml version="1.0" standalone="no"?><!DOCTYPE svg PUBLIC "-//W3C//DTD SVG 1.1//EN" "http://www.w3.org/Graphics/SVG/1.1/DTD/svg11.dtd"><svg t="1680082929011" class="icon" viewBox="0 0 1024 1024" version="1.1" xmlns="http://www.w3.org/2000/svg" p-id="26568" xmlns:xlink="http://www.w3.org/1999/xlink" width="32" height="32"><path d="M97.42336 923.648h829.1328c14.47936 0 27.66848-5.9392 37.25312-15.50336a52.61312 52.61312 0 0 0 15.52384-37.25312v-57.32352a52.6336 52.6336 0 0 0-15.52384-37.25312h0.08192a52.75648 52.75648 0 0 0-37.33504-15.50336H97.42336c-14.49984 0-27.66848 5.89824-37.25312 15.40096l-0.08192 0.1024 0.08192-0.1024-0.08192 0.1024a52.69504 52.69504 0 0 0-15.42144 37.25312v57.32352c0 14.47936 5.9392 27.68896 15.52384 37.25312a52.65408 52.65408 0 0 0 37.23264 15.50336z m0 44.66688a97.15712 97.15712 0 0 1-68.83328-28.61056A97.13664 97.13664 0 0 1 0 870.89152v-57.32352c0-26.74688 10.9568-51.0976 28.61056-68.73088l0.08192-0.1024a97.0752 97.0752 0 0 1 68.75136-28.61056h829.1328a97.0752 97.0752 0 0 1 68.75136 28.61056h0.08192A97.23904 97.23904 0 0 1 1024 813.568v57.32352c0 26.8288-10.9568 51.17952-28.59008 68.83328a97.13664 97.13664 0 0 1-68.83328 28.61056H97.42336v-0.02048zM743.50592 88.82176c-12.94336 0-25.45664 1.76128-37.4784 4.75136h74.9568a154.91072 154.91072 0 0 0-37.4784-4.75136z" fill="#8a8a8a" p-id="26569"></path><path d="M995.40992 537.23136h-0.1024c-2.3552-2.37568-5.12-4.28032-7.70048-6.36928-16.77312-13.68064-37.86752-22.24128-61.0304-22.24128H97.42336c-23.2448 0-44.38016 8.62208-61.17376 22.36416-2.51904 2.08896-5.24288 3.95264-7.55712 6.26688l-0.08192 0.08192A96.95232 96.95232 0 0 0 0 606.04416v57.30304c0 26.8288 10.9568 51.2 28.61056 68.83328a97.13664 97.13664 0 0 0 68.83328 28.63104h829.1328c26.8288 0 51.17952-10.97728 68.83328-28.63104A97.15712 97.15712 0 0 0 1024 663.3472v-57.30304a97.13664 97.13664 0 0 0-28.59008-68.8128z m-16.0768 126.11584a52.6336 52.6336 0 0 1-15.52384 37.25312 52.57216 52.57216 0 0 1-37.25312 15.52384H97.42336c-14.47936 0-27.68896-5.9392-37.25312-15.52384a52.61312 52.61312 0 0 1-15.52384-37.25312v-57.30304a52.77696 52.77696 0 0 1 52.75648-52.77696h829.1328c14.5408 0 27.77088 5.9392 37.33504 15.52384h-0.08192c9.56416 9.56416 15.52384 22.75328 15.52384 37.25312v57.30304h0.02048z" fill="#8a8a8a" p-id="26570"></path><path d="M97.42336 508.60032a52.6336 52.6336 0 0 1-37.25312-15.50336 52.69504 52.69504 0 0 1-15.52384-37.2736v-57.30304c0-14.52032 5.91872-27.68896 15.42144-37.25312l0.08192-0.1024a52.71552 52.71552 0 0 1 37.25312-15.44192h440.66816c-8.04864-13.9264-7.9872-28.89728-12.55424-44.6464l5.5296-0.02048H97.42336a52.6336 52.6336 0 0 1-37.25312-15.50336 52.69504 52.69504 0 0 1-15.52384-37.25312V190.99648c0-14.52032 5.91872-27.68896 15.42144-37.25312l0.08192-0.1024a52.9408 52.9408 0 0 1 37.2736-15.42144H606.4128c10.38336-16.67072-9.728-31.68256 4.87424-44.66688H97.42336A97.11616 97.11616 0 0 0 28.672 122.1632l-0.06144 0.08192A97.0752 97.0752 0 0 0 0 190.99648v57.32352c0 26.80832 10.9568 51.2 28.61056 68.83328 2.33472 2.33472 5.07904 4.21888 7.63904 6.30784-2.51904 2.06848-5.24288 3.91168-7.55712 6.2464l-0.08192 0.08192A96.99328 96.99328 0 0 0 0 398.52032v57.30304c0 26.80832 10.9568 51.17952 28.61056 68.83328 2.33472 2.3552 5.07904 4.23936 7.63904 6.30784 16.7936-13.74208 37.92896-22.36416 61.17376-22.36416z" fill="#8a8a8a" p-id="26571"></path><path d="M729.74336 499.11808c-122.2656 0-221.71648-99.45088-221.71648-221.71648 0-122.24512 99.47136-221.696 221.71648-221.696 122.2656 0 221.71648 99.45088 221.71648 221.696 0.02048 122.24512-99.45088 221.71648-221.71648 221.71648z m0-399.29856c-97.8944 0-177.5616 79.64672-177.5616 177.5616 0 97.91488 79.64672 177.58208 177.5616 177.58208 97.91488 0 177.5616-79.6672 177.5616-177.58208 0-97.8944-79.64672-177.5616-177.5616-177.5616z" fill="#8a8a8a" p-id="26572"></path><path d="M959.6928 557.85472c-5.65248 0-11.30496-2.1504-15.60576-6.47168l-103.09632-103.09632a22.05696 22.05696 0 1 1 31.232-31.21152l103.09632 103.09632a22.05696 22.05696 0 0 1-15.62624 37.6832z" fill="#8a8a8a" p-id="26573"></path></svg>