<?xml version="1.0" standalone="no"?><!DOCTYPE svg PUBLIC "-//W3C//DTD SVG 1.1//EN" "http://www.w3.org/Graphics/SVG/1.1/DTD/svg11.dtd"><svg t="1680081595769" class="icon" viewBox="0 0 1024 1024" version="1.1" xmlns="http://www.w3.org/2000/svg" p-id="7162" xmlns:xlink="http://www.w3.org/1999/xlink" width="32" height="32"><path d="M85.333333 256V170.666667h167.381334v85.333333H85.333333z m256.128 0V170.666667H938.666667v85.333333H341.461333zM85.333333 554.666667v-85.333334h591.573334v85.333334H85.333333z m691.84 0v-85.333334H938.666667v85.333334h-161.493334zM85.333333 853.333333v-85.333333h382.293334v85.333333H85.333333z m475.050667 0v-85.333333H938.666667v85.333333h-378.282667z" fill="#2E2F30" p-id="7163"></path><path d="M298.666667 213.333333m-85.333334 0a85.333333 85.333333 0 1 0 170.666667 0 85.333333 85.333333 0 1 0-170.666667 0Z" fill="#2E2F30" p-id="7164"></path><path d="M725.333333 512m-85.333333 0a85.333333 85.333333 0 1 0 170.666667 0 85.333333 85.333333 0 1 0-170.666667 0Z" fill="#2E2F30" p-id="7165"></path><path d="M512 810.666667m-85.333333 0a85.333333 85.333333 0 1 0 170.666666 0 85.333333 85.333333 0 1 0-170.666666 0Z" fill="#2E2F30" p-id="7166"></path></svg>